<?xml version="1.0" encoding="UTF-8" standalone="no"?>
<!DOCTYPE svg PUBLIC "-//W3C//DTD SVG 1.1//EN" "http://www.w3.org/Graphics/SVG/1.1/DTD/svg11.dtd">
<!-- Generated by graphviz version 2.40.1 (20161225.0304)
 -->
<!-- Title: G Pages: 1 -->
<svg width="401pt" height="632pt" viewBox="0.00 0.00 401.00 632.21" xmlns="http://www.w3.org/2000/svg" xmlns:xlink="http://www.w3.org/1999/xlink">
<g id="graph0" class="graph" transform="scale(1 1) rotate(0) translate(4 628.2146)">
<title>G</title>
<polygon fill="#ffffff" stroke="transparent" points="-4,4 -4,-628.2146 397,-628.2146 397,4 -4,4"/>
<g id="clust1" class="cluster">
<title>cluster_1</title>
<polygon fill="none" stroke="#ff0000" points="45,-357.4 45,-561 239,-561 239,-357.4 45,-357.4"/>
<text text-anchor="middle" x="142" y="-544.4" font-family="Times,serif" font-size="14.00" fill="#000000">build vm/instance image</text>
</g>
<g id="clust2" class="cluster">
<title>cluster_2</title>
<polygon fill="none" stroke="#ff0000" points="247,-357.4 247,-561 385,-561 385,-357.4 247,-357.4"/>
<text text-anchor="middle" x="316" y="-544.4" font-family="Times,serif" font-size="14.00" fill="#000000">build container image</text>
</g>
<g id="clust3" class="cluster">
<title>cluster_3</title>
<polygon fill="none" stroke="#00ff00" points="8,-8 8,-338.4 304,-338.4 304,-8 8,-8"/>
<text text-anchor="middle" x="156" y="-321.8" font-family="Times,serif" font-size="14.00" fill="#000000">Infra</text>
</g>
<!-- create_image_script -->
<g id="node1" class="node">
<title>create_image_script</title>
<ellipse fill="#d3d3d3" stroke="#000000" cx="142" cy="-510.2" rx="88.5793" ry="18"/>
<text text-anchor="middle" x="142" y="-506" font-family="Times,serif" font-size="14.00" fill="#000000">create_image_script</text>
</g>
<!-- image_created -->
<g id="node2" class="node">
<title>image_created</title>
<ellipse fill="#d3d3d3" stroke="#000000" cx="143" cy="-383.4" rx="67.1734" ry="18"/>
<text text-anchor="middle" x="143" y="-379.2" font-family="Times,serif" font-size="14.00" fill="#000000">image_created</text>
</g>
<!-- create_image_script&#45;&gt;image_created -->
<g id="edge1" class="edge">
<title>create_image_script-&gt;image_created</title>
<path fill="none" stroke="#000000" d="M142.1433,-492.0327C142.3089,-471.0352 142.5834,-436.2261 142.777,-411.679"/>
<polygon fill="#000000" stroke="#000000" points="146.2779,-411.561 142.857,-401.5336 139.2781,-411.5057 146.2779,-411.561"/>
<text text-anchor="middle" x="160.6522" y="-442.6" font-family="Times,serif" font-size="14.00" fill="#000000">packer</text>
</g>
<!-- start_instance -->
<g id="node5" class="node">
<title>start_instance</title>
<ellipse fill="#d3d3d3" stroke="#000000" cx="144" cy="-287.6" rx="64.2591" ry="18"/>
<text text-anchor="middle" x="144" y="-283.4" font-family="Times,serif" font-size="14.00" fill="#000000">start_instance</text>
</g>
<!-- image_created&#45;&gt;start_instance -->
<g id="edge7" class="edge">
<title>image_created-&gt;start_instance</title>
<path fill="none" stroke="#000000" d="M143.1881,-365.3808C143.3324,-351.5527 143.5345,-332.193 143.701,-316.2477"/>
<polygon fill="#000000" stroke="#000000" points="147.2047,-315.9002 143.8094,-305.8642 140.2051,-315.8271 147.2047,-315.9002"/>
</g>
<!-- dockerFile -->
<g id="node3" class="node">
<title>dockerFile</title>
<ellipse fill="#d3d3d3" stroke="#000000" cx="307" cy="-510.2" rx="52.1655" ry="18"/>
<text text-anchor="middle" x="307" y="-506" font-family="Times,serif" font-size="14.00" fill="#000000">dockerFile</text>
</g>
<!-- oci_image -->
<g id="node4" class="node">
<title>oci_image</title>
<ellipse fill="#d3d3d3" stroke="#000000" cx="306" cy="-383.4" rx="51.0242" ry="18"/>
<text text-anchor="middle" x="306" y="-379.2" font-family="Times,serif" font-size="14.00" fill="#000000">oci_image</text>
</g>
<!-- dockerFile&#45;&gt;oci_image -->
<g id="edge2" class="edge">
<title>dockerFile-&gt;oci_image</title>
<path fill="none" stroke="#000000" d="M306.8567,-492.0327C306.6911,-471.0352 306.4166,-436.2261 306.223,-411.679"/>
<polygon fill="#000000" stroke="#000000" points="309.7219,-411.5057 306.143,-401.5336 302.7221,-411.561 309.7219,-411.5057"/>
<text text-anchor="middle" x="341.1855" y="-442.6" font-family="Times,serif" font-size="14.00" fill="#000000">docker build</text>
</g>
<!-- instance_with_container_running -->
<g id="node7" class="node">
<title>instance_with_container_running</title>
<ellipse fill="#d3d3d3" stroke="#000000" cx="156" cy="-34" rx="140.0955" ry="18"/>
<text text-anchor="middle" x="156" y="-29.8" font-family="Times,serif" font-size="14.00" fill="#000000">instance_with_container_running</text>
</g>
<!-- oci_image&#45;&gt;instance_with_container_running -->
<g id="edge8" class="edge">
<title>oci_image-&gt;instance_with_container_running</title>
<path fill="none" stroke="#000000" d="M305.7,-365.3908C305.4054,-346.1366 305,-314.7115 305,-287.6 305,-287.6 305,-287.6 305,-97.4 305,-79.7227 269.0414,-64.113 232.4539,-52.8057"/>
<polygon fill="#000000" stroke="#000000" points="233.239,-49.3874 222.6555,-49.879 231.2355,-56.0946 233.239,-49.3874"/>
</g>
<!-- instace_running_with_nomad -->
<g id="node6" class="node">
<title>instace_running_with_nomad</title>
<ellipse fill="#d3d3d3" stroke="#000000" cx="149" cy="-160.8" rx="125.6517" ry="18"/>
<text text-anchor="middle" x="149" y="-156.6" font-family="Times,serif" font-size="14.00" fill="#000000">instace_running_with_nomad</text>
</g>
<!-- start_instance&#45;&gt;instace_running_with_nomad -->
<g id="edge3" class="edge">
<title>start_instance-&gt;instace_running_with_nomad</title>
<path fill="none" stroke="#000000" d="M144.7164,-269.4327C145.5444,-248.4352 146.917,-213.6261 147.8849,-189.079"/>
<polygon fill="#000000" stroke="#000000" points="151.3881,-189.0638 148.285,-178.9336 144.3936,-188.7879 151.3881,-189.0638"/>
<text text-anchor="middle" x="172.4264" y="-220" font-family="Times,serif" font-size="14.00" fill="#000000">terraform</text>
</g>
<!-- instace_running_with_nomad&#45;&gt;instance_with_container_running -->
<g id="edge4" class="edge">
<title>instace_running_with_nomad-&gt;instance_with_container_running</title>
<path fill="none" stroke="#000000" d="M150.0029,-142.6327C151.1621,-121.6352 153.0837,-86.8261 154.4389,-62.279"/>
<polygon fill="#000000" stroke="#000000" points="157.9423,-62.3114 154.9989,-52.1336 150.9529,-61.9255 157.9423,-62.3114"/>
<text text-anchor="middle" x="179.0158" y="-93.2" font-family="Times,serif" font-size="14.00" fill="#000000">after boot</text>
</g>
<!-- start -->
<g id="node8" class="node">
<title>start</title>
<polygon fill="none" stroke="#000000" points="224,-624.1073 184.7627,-606.1073 224,-588.1073 263.2373,-606.1073 224,-624.1073"/>
<polyline fill="none" stroke="#000000" points="195.6698,-611.1109 195.6698,-601.1037 "/>
<polyline fill="none" stroke="#000000" points="213.0929,-593.1109 234.9071,-593.1109 "/>
<polyline fill="none" stroke="#000000" points="252.3302,-601.1037 252.3302,-611.1109 "/>
<polyline fill="none" stroke="#000000" points="234.9071,-619.1037 213.0929,-619.1037 "/>
<text text-anchor="middle" x="224" y="-601.9073" font-family="Times,serif" font-size="14.00" fill="#000000">start</text>
</g>
<!-- start&#45;&gt;create_image_script -->
<g id="edge5" class="edge">
<title>start-&gt;create_image_script</title>
<path fill="none" stroke="#000000" d="M212.9411,-593.1728C200.4507,-578.564 179.8087,-554.4211 164.0026,-535.9343"/>
<polygon fill="#000000" stroke="#000000" points="166.5042,-533.4742 157.3454,-528.148 161.1837,-538.0231 166.5042,-533.4742"/>
</g>
<!-- start&#45;&gt;dockerFile -->
<g id="edge6" class="edge">
<title>start-&gt;dockerFile</title>
<path fill="none" stroke="#000000" d="M235.1937,-593.1728C247.9907,-578.3858 269.2411,-553.8308 285.3122,-535.2605"/>
<polygon fill="#000000" stroke="#000000" points="288.165,-537.3125 292.0624,-527.4605 282.8719,-532.7317 288.165,-537.3125"/>
</g>
<!-- end -->
<g id="node9" class="node">
<title>end</title>
<polygon fill="none" stroke="#000000" points="317.2152,-624.3225 280.7848,-624.3225 280.7848,-587.8921 317.2152,-587.8921 317.2152,-624.3225"/>
<polyline fill="none" stroke="#000000" points="292.7848,-624.3225 280.7848,-612.3225 "/>
<polyline fill="none" stroke="#000000" points="280.7848,-599.8921 292.7848,-587.8921 "/>
<polyline fill="none" stroke="#000000" points="305.2152,-587.8921 317.2152,-599.8921 "/>
<polyline fill="none" stroke="#000000" points="317.2152,-612.3225 305.2152,-624.3225 "/>
<text text-anchor="middle" x="299" y="-601.9073" font-family="Times,serif" font-size="14.00" fill="#000000">end</text>
</g>
</g>
</svg>